<svg width="116.000000" height="25.000000" viewBox="0 0 116 25" fill="none" xmlns="http://www.w3.org/2000/svg" xmlns:xlink="http://www.w3.org/1999/xlink">
	<desc>
			Created with Pixso.
	</desc>
	<defs/>
	<path id="Shape" d="M19.1904 24.9587L11.6733 24.8231C11.1987 24.8139 10.7236 24.8101 10.249 24.8063C8.28955 24.7905 6.33398 24.7748 4.41357 24.3809C0.783203 23.6498 0.526367 20.0648 0.257324 17.0578C-0.11377 12.8302 0.0297852 8.52594 0.729492 4.33372C1.12451 1.98112 2.6792 0.57782 5.08301 0.42453C13.1982 -0.129715 21.3672 -0.0648651 29.4648 0.194565C30.3198 0.218155 31.1812 0.34787 32.0244 0.495285C36.1865 1.21461 36.2881 5.27711 36.5571 8.69693C36.8262 12.1521 36.7129 15.625 36.1982 19.0566C35.7856 21.8986 34.9966 24.2807 31.6655 24.5106C27.4912 24.8113 23.4126 25.0531 19.2266 24.9764C19.2266 24.9587 19.2026 24.9587 19.1904 24.9587ZM24.1304 12.4646C21.0024 14.2335 17.917 15.9847 14.771 17.7653L14.771 7.16391C17.8989 8.93279 20.9785 10.684 24.1304 12.4646Z" clip-rule="evenodd" fill="#FF0000" fill-opacity="1.000000" fill-rule="evenodd"/>
	<path id="Shape" d="M97.0474 21.7276C96.9038 22.3054 96.7783 22.7594 96.6523 23.2429L93.7104 23.2429L93.7104 0.866745L97.1431 0.866745L97.1431 9.12146C97.3223 8.8974 97.4121 8.80307 97.4897 8.70284C98.0757 7.90685 98.8354 7.38797 99.8159 7.1875C101.377 6.8868 102.71 7.56487 103.183 9.04482C103.488 9.96463 103.686 10.9493 103.709 11.9104C103.724 12.6565 103.73 13.4021 103.73 14.1474C103.73 15.8701 103.694 17.5916 103.631 19.316C103.596 20.0708 103.362 20.8432 103.069 21.5507C102.106 23.8856 98.9609 24.2394 97.3999 22.217C97.3042 22.0932 97.2148 21.9576 97.0474 21.7276ZM97.2148 19.6639L97.2148 11.4799C97.2148 10.7901 97.5498 10.2712 98.0996 9.90565C98.8296 9.42807 99.5708 9.66982 99.8398 10.4894C99.9834 10.9434 100.097 11.4269 100.097 11.8927C100.079 14.3986 100.02 16.8986 99.9536 19.3986C99.9478 19.6639 99.834 19.9292 99.7202 20.1828C99.4512 20.7901 98.9131 21.0436 98.2495 20.8903C97.5737 20.737 97.2148 20.3302 97.2148 19.6639ZM87.8857 7.50589L91.4795 7.50589L91.4795 23.2547L88.6748 23.2547C88.5732 22.6592 88.4717 22.046 88.3521 21.3266C88.1606 21.6038 88.0469 21.7807 87.9272 21.9576C86.9946 23.2842 85.6729 23.7382 84.1118 23.4965C82.7783 23.2842 81.9771 22.2701 81.7979 20.6073C81.7437 20.112 81.7197 19.6108 81.7197 19.1156C81.7158 17.8872 81.7148 16.6575 81.7148 15.4274C81.7148 14.1968 81.7158 12.9658 81.7173 11.7352C81.7188 10.5055 81.7197 9.27629 81.7197 8.04836L81.7197 7.49411L85.356 7.49411L85.356 8.1368C85.356 9.02724 85.355 9.91731 85.3545 10.8072C85.3535 11.6967 85.353 12.5861 85.353 13.4754C85.353 15.2547 85.356 17.0341 85.3677 18.8148C85.3677 19.3219 85.4219 19.8467 85.5112 20.3538C85.6133 20.8726 85.9956 21.0613 86.5103 21.0259C87.3413 20.9611 87.9155 20.3538 87.9155 19.5401L87.9155 8.20164C87.8857 7.97169 87.8857 7.75943 87.8857 7.50589ZM63.1392 7.49411L66.7515 7.49411L66.7515 8.16037C66.7515 9.04662 66.7505 9.9325 66.75 10.818C66.749 11.7028 66.7485 12.5872 66.7485 13.4712C66.7485 15.2401 66.7515 17.0076 66.7632 18.7736C66.7632 19.2807 66.811 19.8054 66.9189 20.3007C67.0562 20.8844 67.4033 21.0731 67.9951 20.9965C68.8145 20.8844 69.311 20.3243 69.3169 19.5047L69.3169 7.51768L72.9111 7.51768L72.9111 23.2547L70.1182 23.2547C70.0166 22.671 69.915 22.0696 69.7832 21.309C69.604 21.5743 69.5024 21.7276 69.4009 21.8868C68.4678 23.237 67.1582 23.7323 65.5615 23.4906C64.2817 23.3019 63.498 22.3703 63.2588 20.8432C63.1934 20.3656 63.1455 19.8939 63.1455 19.4163C63.1333 15.5896 63.1333 11.7453 63.1333 7.91862L63.1392 7.49411ZM61.2856 15.9021C61.2734 16.4328 61.2378 16.9634 61.2075 17.4941C61.0703 19.0861 61.0044 21.3443 59.7007 22.5059C58.8696 23.237 57.8169 23.5023 56.7285 23.5377C56.2441 23.5495 55.7539 23.5495 55.2695 23.4847C52.979 23.1427 51.9146 22.1462 51.5317 19.6639C51.3149 18.2401 51.1968 16.8046 51.1968 15.3691C51.1968 13.9155 51.3179 12.4618 51.5796 11.0201C52.1177 8.05424 53.9717 7.00471 56.854 7.1993C59.5454 7.38797 60.7471 9.12735 61.064 11.6038C61.2109 12.8075 61.2935 14.0238 61.2935 15.2422C61.2935 15.4621 61.291 15.6821 61.2856 15.9021ZM57.6294 14.4949C57.6274 14.7835 57.6255 15.0718 57.6255 15.3597C57.6255 16.7217 57.5479 18.0837 57.5059 19.4398C57.5059 19.7818 57.3862 20.1297 57.249 20.4481C57.0752 20.8609 56.7642 21.0908 56.292 21.0908C55.8076 21.0908 55.437 20.8549 55.2935 20.4245C55.0366 19.6588 54.9756 18.853 54.9756 18.0402C54.9756 17.6739 54.9883 17.3062 55.0005 16.9401C55.0112 16.6237 55.0215 16.3085 55.0239 15.9965C55.0361 14.4163 55.0479 12.8302 55.0479 11.25C55.0479 11.0201 55.1196 10.7842 55.1855 10.5542C55.377 9.93513 55.7476 9.61674 56.2739 9.60495C56.812 9.59315 57.2427 9.91156 57.3862 10.5778C57.5117 11.1557 57.5898 11.7453 57.6138 12.329C57.6289 12.7611 57.6333 13.1943 57.6333 13.6277C57.6333 13.9168 57.6313 14.2059 57.6294 14.4949ZM46.2573 12.3939C46.5742 10.8667 46.873 9.375 47.2021 7.87737C47.6147 5.97287 48.0752 4.06839 48.4819 2.15802C48.5835 1.69221 48.7749 1.58018 49.2231 1.59198C49.9082 1.61714 50.6016 1.61247 51.3154 1.60768C51.605 1.60574 51.8984 1.60378 52.1953 1.60378C51.8608 2.81839 51.5317 3.97406 51.209 5.11203C50.186 8.68513 49.1636 12.2701 48.1528 15.8549C48.0752 16.1321 48.0391 16.4328 48.0391 16.7276C48.0352 17.3801 48.0337 18.032 48.0337 18.6836C48.0337 19.335 48.0352 19.9862 48.0366 20.6377C48.0381 21.2895 48.0391 21.9416 48.0391 22.5943L48.0391 23.2311L44.5288 23.2311C44.5171 23.0542 44.4932 22.8774 44.4932 22.7005C44.4932 22.3465 44.4839 21.992 44.4746 21.6376C44.4653 21.2836 44.4565 20.9297 44.4565 20.5768C44.4565 20.1766 44.4683 19.7776 44.5049 19.3809C44.5371 19.0509 44.5518 18.7243 44.5518 18.4005C44.5518 16.4667 44.022 14.6346 43.4927 12.8033C43.4023 12.492 43.3125 12.1808 43.2251 11.8691C42.3159 8.62617 41.395 5.37146 40.4863 2.12854C40.4385 1.97523 40.4204 1.81013 40.3726 1.62146L43.9546 1.62146C44.708 5.20047 45.4678 8.77948 46.2573 12.3939ZM114.94 16.5035L108.888 16.5035C108.954 17.7005 108.978 18.8384 109.104 19.9646C109.193 20.7488 109.63 21.0849 110.317 21.0908C111.035 21.1026 111.454 20.7488 111.621 19.9705C111.675 19.717 111.711 19.4634 111.735 19.204C111.759 18.9741 111.771 18.7264 111.789 18.3962C112.811 18.4493 113.81 18.5083 114.797 18.5495C114.905 18.8661 114.956 19.1997 114.956 19.537C114.956 20.9901 114.008 22.5135 112.596 23.0542C111.227 23.5849 109.821 23.5849 108.422 23.1781C107.387 22.8773 106.616 22.2288 106.269 21.2323C105.946 20.3007 105.641 19.3278 105.575 18.3549C105.49 17.2213 105.431 16.0825 105.431 14.9427C105.431 13.6696 105.505 12.3954 105.701 11.1262C105.767 10.7252 105.88 10.342 106.006 9.95284C106.508 8.34906 107.603 7.36438 109.295 7.1993C110.216 7.11086 111.167 7.14622 112.076 7.29953C113.547 7.55307 114.33 8.59669 114.671 9.96463C114.827 10.6073 114.94 11.2677 114.964 11.9222C114.965 12.0589 114.965 12.1954 114.965 12.332C114.965 13.0056 114.959 13.6787 114.953 14.361C114.946 15.0621 114.94 15.7728 114.94 16.5035ZM111.503 13.5475C111.502 13.8393 111.501 14.1344 111.501 14.434C110.694 14.434 109.863 14.434 108.948 14.4458C108.946 14.1899 108.94 13.9343 108.934 13.679C108.926 13.3597 108.919 13.0409 108.919 12.723C108.919 11.9066 108.968 11.0956 109.193 10.2948C109.319 9.84081 109.642 9.58727 110.15 9.58727C110.658 9.58727 111.083 9.72287 111.286 10.2182C111.388 10.4717 111.49 10.7488 111.49 11.0141C111.501 11.5743 111.504 12.133 111.504 12.6997C111.504 12.98 111.504 13.2622 111.503 13.5475Z" clip-rule="evenodd" fill="#282828" fill-opacity="1.000000" fill-rule="evenodd"/>
	<path id="Path" d="M75.68 4.49L72.12 4.49L72.12 1.65L82.74 1.65L82.74 4.47L79.21 4.47L79.21 23.23L75.69 23.23L75.68 4.49Z" fill="#282828" fill-opacity="1.000000" fill-rule="nonzero"/>
</svg>
